<svg xmlns="http://www.w3.org/2000/svg" xmlns:xlink="http://www.w3.org/1999/xlink" width="99" height="99" viewBox="0 0 99 99" fill="none"><defs><rect id="path_0" x="0" y="0" width="99" height="99" /></defs><g opacity="1" transform="translate(0 0)  rotate(0 49.5 49.5)"><mask id="bg-mask-0" fill="white"><use xlink:href="#path_0"></use></mask><g mask="url(#bg-mask-0)" ><path id="分组 1" fill-rule="evenodd" style="fill:#C4C4C4" transform="translate(6.1875 12.375)  rotate(0 43.3125 37.125000614455786)" opacity="1" d="M26.35 74.25L60.28 74.25C61.32 74.25 62.29 73.73 62.86 72.86C63.43 71.99 63.53 70.89 63.12 69.94L58.34 58.78L83.53 58.78C85.24 58.78 86.63 57.39 86.63 55.69L86.63 3.09C86.63 1.39 85.24 0 83.53 0L3.09 0C1.39 0 0 1.39 0 3.09L0 55.69C0 57.39 1.39 58.78 3.09 58.78L28.28 58.78L23.5 69.94C23.09 70.89 23.19 71.99 23.76 72.86C24.34 73.73 25.31 74.25 26.35 74.25Z M35.0196 58.7812L31.0396 68.0612L55.5896 68.0612L51.6096 58.7812L35.0196 58.7812Z M6.1875 6.1875L6.1875 52.5975L80.4375 52.5975L80.4375 6.1875L6.1875 6.1875Z " /></g></g></svg>