<?xml version="1.0" encoding="UTF-8"?>
<svg width="38px" height="38px" viewBox="0 0 38 38" version="1.1" xmlns="http://www.w3.org/2000/svg" xmlns:xlink="http://www.w3.org/1999/xlink">
    <title>2</title>
    <defs>
        <linearGradient x1="-128.473326%" y1="50%" x2="100%" y2="50%" id="linearGradient-1">
            <stop stop-color="#7FFED8" offset="0%"></stop>
            <stop stop-color="#09BDFE" offset="100%"></stop>
        </linearGradient>
    </defs>
    <g id="项目管理" stroke="none" stroke-width="1" fill="none" fill-rule="evenodd">
        <g id="项目详情-任务" transform="translate(-1138.000000, -196.000000)" fill="url(#linearGradient-1)">
            <g id="有图标" transform="translate(226.000000, 97.000000)">
                <g id="2" transform="translate(912.000000, 99.000000)">
                    <path d="M29.944,18.05 L26.182,21.812 L19.532,15.2 L23.294,11.438 C23.902,10.83 24.852,10.83 25.46,11.438 L29.944,15.922 C30.552,16.53 30.552,17.48 29.944,18.05 L29.944,18.05 Z M23.78819,24.244 L18.886,19.342 C18.734,19.19 18.506,19.19 18.354,19.342 C18.202,19.494 18.202,19.722 18.354,19.874 L23.25619,24.776 L21.394,26.638 L16.72,22.002 C16.56819,21.85 16.34,21.85 16.18819,22.002 C16.036,22.154 16.036,22.382 16.18819,22.534 L20.824,27.17 L19.79819,28.196 C19.342,28.652 18.62,28.652 18.202,28.196 L12.35,22.382 L8.056,18.05 C7.44819,17.442 7.44819,16.492 8.056,15.884 L12.54,11.4 C13.14819,10.792 14.09819,10.792 14.706,11.4 L19,15.732 L25.65,22.382 L23.78819,24.244 Z M19,0 C8.512,0 0,8.512 0,19 C0,29.488 8.512,38 19,38 C29.48819,38 38,29.488 38,19 C38,8.512 29.48819,0 19,0 L19,0 Z" id="Fill-1"></path>
                </g>
            </g>
        </g>
    </g>
</svg>